<svg fill="#000000" viewBox="0 0 24 24" id="medical-receipt" data-name="Flat Color" xmlns="http://www.w3.org/2000/svg" class="icon flat-color"><g id="SVGRepo_bgCarrier" stroke-width="0"></g><g id="SVGRepo_tracerCarrier" stroke-linecap="round" stroke-linejoin="round"></g><g id="SVGRepo_iconCarrier"><rect id="primary" x="4" y="4" width="16" height="18" rx="2" style="fill: #014fe9;"></rect><path id="secondary" d="M12,17a1,1,0,0,1-1-1V15H10a1,1,0,0,1,0-2h1V12a1,1,0,0,1,2,0v1h1a1,1,0,0,1,0,2H13v1A1,1,0,0,1,12,17ZM14,2H10A2,2,0,0,0,8,4V5A1,1,0,0,0,9,6h6a1,1,0,0,0,1-1V4A2,2,0,0,0,14,2Z" style="fill: #fafafa;"></path></g></svg>
